<svg version="1.1" id="Layer_1" xmlns="http://www.w3.org/2000/svg" xmlns:xlink="http://www.w3.org/1999/xlink" x="0px" y="0px"
	 width="100%" viewBox="0 0 1024 576" enable-background="new 0 0 1024 576" xml:space="preserve">
<path fill="#000000" opacity="1.000000" stroke="none" 
	d="
M284.651154,365.415833 
	C264.198273,353.494110 244.131683,341.627960 223.845367,330.150208 
	C219.265549,327.559021 217.766922,324.474701 217.814178,319.398041 
	C218.032745,295.916138 218.051254,272.429688 217.813095,248.948196 
	C217.756256,243.344574 218.898499,239.233505 224.554550,237.124527 
	C226.135025,236.535233 227.980728,235.807144 228.715164,233.836899 
	C226.518555,231.752029 223.151077,232.862030 220.231247,230.261505 
	C226.565491,227.067184 232.887726,225.742966 239.398865,225.755234 
	C242.734695,225.761536 245.481781,225.033813 248.314575,223.373291 
	C265.264679,213.437469 282.345581,203.723846 299.250702,193.712952 
	C302.761078,191.634155 305.513000,191.804932 308.896057,193.809601 
	C321.500427,201.278412 334.382996,208.286270 346.868988,215.943588 
	C356.140228,221.629395 365.347260,226.833420 376.694763,226.754807 
	C380.134460,226.730972 383.497131,227.991745 386.842529,230.365005 
	C384.390869,232.639374 381.312469,232.160339 378.140289,233.708267 
	C380.992981,235.535614 383.421417,237.320358 386.056213,238.715378 
	C388.760010,240.146957 389.711609,242.120163 389.692657,245.151474 
	C389.533447,270.630432 389.417114,296.110565 389.518555,321.589386 
	C389.533691,325.396637 388.444061,327.636292 385.099731,329.564545 
	C359.570038,344.284393 334.107574,359.122253 308.726654,374.097168 
	C305.233917,376.157898 302.493835,376.233429 299.136475,374.012756 
	C294.560211,370.985901 289.697723,368.391693 284.651154,365.415833 
M246.202560,232.922333 
	C243.386551,231.430359 241.019836,233.047424 238.745560,234.229874 
	C234.760300,236.301926 230.994064,238.795807 227.005325,240.860336 
	C223.938812,242.447540 222.874878,244.737213 222.886993,248.109543 
	C222.971970,271.771393 223.002380,295.434143 222.858566,319.095459 
	C222.835098,322.957886 224.306198,325.097534 227.573532,326.981201 
	C251.675140,340.876282 275.699768,354.905548 299.688080,368.995667 
	C302.589874,370.700073 305.025299,370.961273 308.014557,369.205688 
	C332.722473,354.694946 357.476227,340.261810 382.264313,325.888428 
	C384.719269,324.464905 385.731628,322.769928 385.720520,319.902618 
	C385.626740,295.740662 385.665344,271.578156 385.652435,247.415817 
	C385.651581,245.770203 385.916321,243.958359 384.174103,242.924271 
	C376.808350,238.552307 369.888245,233.291489 360.718475,230.874527 
	C360.527100,235.535553 364.627014,237.652985 365.627960,241.212814 
	C366.038147,242.671738 367.958923,243.827148 366.935791,245.831039 
	C365.991913,247.679703 364.313660,248.240128 362.343719,248.242310 
	C357.345032,248.247864 352.336029,248.097305 347.351044,248.370941 
	C343.700500,248.571320 340.453064,250.325699 338.685883,253.540344 
	C336.949829,256.698456 339.110413,259.418060 341.148834,261.585297 
	C349.488708,270.452148 346.390106,280.580566 344.068085,290.347931 
	C343.457153,292.917694 343.151489,294.797516 344.013885,297.246063 
	C353.994904,325.585632 334.718018,354.611786 305.520569,355.325409 
	C275.276642,356.064606 253.955292,327.554321 263.327667,298.807037 
	C264.334045,295.720154 264.303040,292.956482 263.785675,289.679840 
	C262.290863,280.212433 258.736481,270.476379 266.787598,261.696381 
	C272.563293,255.397827 270.066071,249.797318 261.423584,248.436646 
	C259.792267,248.179794 258.098419,248.300125 256.433075,248.283508 
	C252.767914,248.246964 249.088074,248.428192 245.441376,248.156372 
	C241.876480,247.890656 239.103287,244.294968 240.967636,242.772644 
	C244.066940,240.241943 243.941010,236.197098 246.202560,232.922333 
M257.049896,234.886719 
	C257.843109,240.200562 261.223236,241.539841 266.130646,241.315231 
	C267.965393,241.231247 269.961121,242.344070 271.712036,243.244553 
	C275.112274,244.993256 278.047668,244.895920 280.646393,241.840515 
	C284.698242,237.076630 291.024963,235.439697 296.142487,233.127594 
	C301.944702,230.506165 310.442474,228.320435 316.119110,235.945816 
	C316.466003,236.411789 317.272491,236.761047 317.874603,236.775665 
	C322.453217,236.886902 325.587921,239.558792 328.499481,242.634018 
	C330.666992,244.923431 333.085510,245.136749 335.709106,243.568481 
	C338.795532,241.723557 342.076263,240.806625 345.703094,240.995712 
	C347.572571,241.093155 349.780457,240.867157 349.994781,238.554367 
	C350.251221,235.787064 352.352051,234.546097 354.051819,232.376495 
	C344.254669,234.517822 335.696381,231.282959 327.139404,227.576035 
	C336.205933,225.961197 345.158997,223.677383 354.459900,226.499725 
	C353.871185,225.582199 353.227051,224.878525 352.441010,224.416077 
	C337.227020,215.465622 321.965576,206.595169 306.799896,197.563828 
	C304.299316,196.074692 302.446960,196.858612 300.361725,198.079849 
	C287.430786,205.653030 274.477081,213.187332 261.553894,220.773666 
	C259.363770,222.059357 257.284912,223.534515 255.154633,224.922134 
	C263.507141,225.076584 271.397186,225.002274 279.082031,227.790955 
	C271.229034,232.014435 262.940979,233.569153 254.202026,233.516876 
	C254.952896,233.851913 255.703781,234.186935 257.049896,234.886719 
M326.350861,264.078552 
	C322.949738,261.733948 319.256989,260.309540 315.104248,261.319611 
	C311.771881,262.130127 309.351135,264.657562 309.008667,267.787750 
	C308.701416,270.596222 312.090729,270.125671 313.982147,270.689819 
	C320.258942,272.561768 326.189178,275.095734 331.219635,279.371124 
	C333.701721,281.480652 335.989105,283.819305 338.460632,286.144623 
	C341.570068,278.984711 340.209930,273.228394 334.584045,269.252838 
	C332.144104,267.528595 329.540161,266.036438 326.350861,264.078552 
M290.533081,271.784180 
	C293.152893,270.606323 296.463501,271.000702 298.520874,268.492645 
	C294.749847,261.826691 291.202057,259.695312 286.555969,261.705750 
	C281.223816,264.013092 276.111237,266.823853 271.654724,270.610474 
	C267.558411,274.091003 266.915039,280.005371 270.143646,285.184021 
	C275.840515,279.463806 282.169464,274.740997 290.533081,271.784180 
z"/>
<path fill="#000000" opacity="1.000000" stroke="none" 
	d="
M470.336182,258.688416 
	C469.744568,262.972321 468.025452,266.359344 465.937378,269.506714 
	C475.904358,278.648102 474.987915,290.780396 469.443420,300.088989 
	C465.265503,307.103271 456.009216,311.196289 447.920380,309.962616 
	C446.539398,309.752014 445.245605,309.402161 444.567871,308.108887 
	C442.033905,303.273407 440.138306,298.201782 438.673035,293.003143 
	C441.492920,291.003906 444.231720,291.848511 446.794556,291.776306 
	C450.709778,291.666046 453.420319,290.037781 453.509735,286.003418 
	C453.600006,281.931458 451.039581,280.065796 447.012756,280.221100 
	C446.680267,280.233948 446.346466,280.215240 446.013336,280.208557 
	C431.957092,279.926880 430.038208,278.224762 427.090179,263.085938 
	C432.152649,262.039490 437.267242,262.845978 442.321411,262.633606 
	C444.159515,262.556396 445.983154,262.625885 447.614380,261.546875 
	C449.914429,260.025421 450.174377,257.790009 449.787201,255.364700 
	C449.328644,252.492325 447.102875,251.602646 444.685913,251.496292 
	C440.195892,251.298721 435.668182,251.099762 431.200531,251.456512 
	C424.876282,251.961502 419.484100,251.407745 417.952240,243.592438 
	C420.317413,253.744995 424.583344,262.988434 428.291199,272.408020 
	C430.221344,277.311554 431.621552,282.097443 431.196411,287.369873 
	C431.007202,289.716309 431.399017,291.735352 434.412506,291.941162 
	C435.464508,292.013000 436.324219,292.716583 436.720276,293.665283 
	C438.752045,298.531708 440.711365,303.428375 442.552216,307.960510 
	C441.325073,309.820618 439.951935,309.911957 438.632935,309.924225 
	C431.303131,309.992371 423.972687,309.991425 416.642731,310.048248 
	C413.376587,310.073547 411.789917,308.688873 411.801483,305.245117 
	C411.875397,283.253998 411.847473,261.262573 411.886658,239.271347 
	C411.890228,237.264618 411.674744,234.590347 415.369598,237.190353 
	C415.223450,235.075897 414.904541,232.766846 418.337158,232.826782 
	C428.495270,233.004105 438.709351,232.314972 448.805450,233.140228 
	C462.755951,234.280548 470.373962,243.718872 470.336182,258.688416 
z"/>
<path fill="#000000" opacity="1.000000" stroke="none" 
	d="
M488.000000,344.253143 
	C461.674469,344.255554 435.848907,344.259521 410.023376,344.254639 
	C408.525543,344.254364 407.022125,344.250275 405.531250,344.127197 
	C403.427490,343.953491 402.819244,342.523315 402.791412,340.645630 
	C402.760834,338.581665 403.332245,337.000244 405.721558,336.827667 
	C406.717255,336.755737 407.718750,336.738739 408.717590,336.738739 
	C456.036652,336.738525 503.355713,336.728577 550.674683,336.794586 
	C552.752747,336.797485 555.635742,335.754486 556.228455,339.337006 
	C556.935181,343.609406 554.592041,344.309998 550.980957,344.293457 
	C530.154358,344.198181 509.327057,344.250488 488.000000,344.253143 
z"/>
<path fill="#000000" opacity="1.000000" stroke="none" 
	d="
M779.000000,344.275696 
	C758.344543,344.268951 738.188965,344.287994 718.033752,344.216888 
	C715.897522,344.209351 713.044434,345.001678 712.733887,341.356232 
	C712.507446,338.697784 713.015808,336.650208 716.333557,336.776489 
	C717.164734,336.808136 717.998779,336.753937 718.831543,336.753815 
	C764.972534,336.747314 811.113586,336.728851 857.254517,336.783081 
	C859.242737,336.785431 861.761658,335.798584 863.037292,338.402802 
	C864.649353,341.693604 862.733337,344.224365 858.455994,344.237671 
	C840.133057,344.294617 821.809814,344.270691 803.486694,344.274933 
	C795.491150,344.276764 787.495544,344.275421 779.000000,344.275696 
z"/>
<path fill="#000000" opacity="1.000000" stroke="none" 
	d="
M623.045837,303.313110 
	C614.940369,297.638885 611.785400,288.122681 614.822693,279.405243 
	C618.404907,269.123718 624.769104,266.028870 641.351868,266.637970 
	C642.557190,262.810883 641.953613,258.847778 641.889893,254.928986 
	C641.858337,252.991425 640.648193,251.922562 638.881958,251.436401 
	C637.701172,251.111404 636.578064,250.718964 636.630432,249.235184 
	C636.691589,247.499481 638.136353,247.254654 639.408691,246.878754 
	C639.726196,246.784927 640.063049,246.758896 640.386108,246.681030 
	C649.628723,244.453644 651.316895,241.200882 651.128723,255.247025 
	C650.963867,267.553864 651.188110,279.865662 651.061523,292.173431 
	C651.015869,296.610809 651.036194,300.645508 656.826660,301.293121 
	C657.267822,301.342468 657.618225,302.202667 658.007019,302.681396 
	C654.871643,305.392883 645.687866,306.670197 642.701172,304.357727 
	C640.950256,303.001984 639.862488,303.366699 638.285522,304.015991 
	C633.257263,306.086212 628.270813,306.130798 623.045837,303.313110 
M627.595154,297.947449 
	C631.045227,300.738037 634.757263,301.194824 638.736877,299.183289 
	C642.722046,297.169006 642.043091,293.452057 642.057251,290.002441 
	C642.070862,286.677032 641.958496,283.348633 642.062988,280.026611 
	C642.205872,275.485504 641.232971,271.655060 636.188110,270.392426 
	C631.545532,269.230530 627.149536,271.513367 625.109558,276.683167 
	C622.293823,283.818634 621.997986,290.937439 627.595154,297.947449 
z"/>
<path fill="#000000" opacity="1.000000" stroke="none" 
	d="
M665.652222,291.774872 
	C665.650879,280.138306 665.610291,268.973969 665.674622,257.810211 
	C665.692078,254.782043 665.509888,252.076614 661.846619,251.260513 
	C660.573425,250.976883 659.743835,250.182678 659.953003,248.771393 
	C660.125977,247.604233 661.155945,247.315430 662.094727,246.947433 
	C673.158875,242.610428 674.173767,243.287079 674.198120,255.076187 
	C674.208008,259.873596 674.199768,264.671082 674.199768,270.055847 
	C677.176270,268.727600 679.479675,267.461243 681.933044,266.647247 
	C691.291321,263.542297 698.881042,268.767395 699.228638,278.592865 
	C699.422913,284.085083 699.314758,289.589233 699.282043,295.087646 
	C699.266052,297.768463 699.578491,300.129425 702.827148,300.764221 
	C704.080505,301.009125 705.054443,301.723572 704.755920,303.171631 
	C704.475891,304.530212 703.294006,304.950012 702.085876,304.968048 
	C697.422607,305.037872 692.757874,305.067444 688.094299,305.032837 
	C686.732727,305.022766 685.297058,304.712250 685.119934,303.010986 
	C684.970581,301.576660 686.070557,300.987457 687.283203,300.730988 
	C689.932068,300.170746 690.651184,298.297577 690.652771,295.914490 
	C690.656372,290.582672 690.834229,285.242676 690.598267,279.921234 
	C690.351685,274.358978 687.251648,271.195526 682.809143,271.417816 
	C677.615295,271.677704 674.270020,275.105133 674.212708,280.353729 
	C674.158142,285.351929 674.211121,290.351257 674.206909,295.350067 
	C674.204712,297.946289 674.209351,300.490570 677.746399,300.843231 
	C678.829224,300.951202 679.644714,301.654968 679.608826,302.811096 
	C679.564758,304.229218 678.485291,304.894379 677.253723,304.914429 
	C672.259827,304.995728 667.263611,304.992188 662.269165,304.939606 
	C661.252136,304.928925 660.288208,304.425201 660.010254,303.309998 
	C659.726440,302.171265 660.282654,301.210663 661.355591,300.990814 
	C666.619812,299.912262 665.491455,295.779755 665.652222,291.774872 
z"/>
<path fill="#000000" opacity="1.000000" stroke="none" 
	d="
M481.772949,266.020752 
	C481.775177,263.026581 481.751007,260.527924 481.783936,258.030029 
	C481.824738,254.933929 481.834625,252.159012 477.822235,251.066589 
	C475.160461,250.341888 475.708282,248.498322 477.821838,247.240311 
	C478.373932,246.911682 479.082825,246.843231 479.722473,246.665329 
	C490.394165,243.697098 490.378754,243.697449 490.376770,254.840576 
	C490.375946,259.501740 490.448303,264.163055 490.519989,268.823792 
	C490.524261,269.103790 490.818237,269.379303 491.202942,270.050171 
	C493.894104,269.080383 496.169312,267.058868 499.061768,266.318756 
	C508.160370,263.990662 515.211060,269.109100 515.335815,278.415253 
	C515.407227,283.744141 515.377991,289.074524 515.374023,294.404236 
	C515.371826,297.395508 515.667908,300.155334 519.376953,300.860962 
	C520.468994,301.068756 521.157715,301.799683 521.046448,302.971130 
	C520.906006,304.449890 519.731934,304.867249 518.539185,304.889008 
	C513.712280,304.977081 508.883240,305.003387 504.055634,304.967102 
	C502.845764,304.958038 501.705078,304.453064 501.485626,303.058136 
	C501.248505,301.550385 502.313995,300.933655 503.540161,300.772919 
	C506.421936,300.395172 506.826477,298.412842 506.822174,296.066040 
	C506.811798,290.403229 506.911285,284.738556 506.795563,279.078156 
	C506.699493,274.379608 503.697998,271.369598 499.455597,271.407623 
	C494.893250,271.448517 490.599640,274.892334 490.447021,279.064270 
	C490.240112,284.719482 490.404724,290.387909 490.384491,296.050568 
	C490.375793,298.490936 491.179413,300.265320 493.836212,300.751617 
	C495.064270,300.976440 496.148468,301.525055 495.893372,303.029053 
	C495.659851,304.406189 494.479187,304.892334 493.288208,304.911163 
	C488.462524,304.987427 483.634674,304.999298 478.808899,304.936951 
	C477.613403,304.921509 476.462097,304.403839 476.272308,302.995087 
	C476.113708,301.817841 476.880432,301.030975 477.930328,300.878418 
	C481.874084,300.305511 481.798309,297.437103 481.789337,294.497955 
	C481.760803,285.170929 481.774506,275.843719 481.772949,266.020752 
z"/>
<path fill="#000000" opacity="1.000000" stroke="none" 
	d="
M569.000610,287.716614 
	C569.634583,276.095551 574.714233,269.216309 584.305176,266.549438 
	C591.860046,264.448761 598.206177,266.915161 603.177612,272.445984 
	C608.628479,278.510193 609.844238,285.730103 606.557129,293.317200 
	C603.577454,300.194550 598.454895,304.714142 590.752319,305.316315 
	C578.901062,306.242767 572.082520,300.713684 569.000610,287.716614 
M581.538574,297.805573 
	C586.850586,303.141602 593.378174,302.798523 596.346375,296.707184 
	C599.629822,289.969177 599.731506,282.895813 596.934875,275.920349 
	C595.352234,271.973022 592.362183,269.985046 587.948303,270.205933 
	C583.637878,270.421631 581.152649,272.863800 580.145813,276.719818 
	C578.352112,283.589264 577.851746,290.484467 581.538574,297.805573 
z"/>
<path fill="#000000" opacity="1.000000" stroke="none" 
	d="
M559.742676,273.394775 
	C565.288452,282.520935 565.063293,291.008270 559.316833,298.210052 
	C554.151794,304.683136 545.585693,307.217346 537.773804,304.583435 
	C530.206116,302.031860 525.106018,295.051056 524.801270,286.827118 
	C524.479492,278.142914 529.418030,270.538818 537.521240,267.241516 
	C545.300659,264.075958 552.943115,266.111450 559.742676,273.394775 
M535.202271,278.916351 
	C533.820312,284.376953 533.924805,289.775330 535.803955,295.122009 
	C537.152649,298.959442 539.787720,301.346161 543.844299,301.542053 
	C547.923462,301.739075 550.852173,299.577271 552.391479,295.846100 
	C554.529419,290.663635 555.136658,285.361389 553.811523,279.765320 
	C552.373230,273.690918 549.848694,270.590118 545.226501,270.244263 
	C540.122742,269.862366 537.805115,271.712646 535.202271,278.916351 
z"/>
<path fill="#000000" opacity="1.000000" stroke="none" 
	d="
M776.295837,300.007019 
	C779.563171,301.432983 782.549438,302.197937 785.772339,300.995026 
	C787.982910,300.169983 789.522827,298.967804 789.728088,296.434235 
	C789.936096,293.866272 788.629883,292.285126 786.431335,291.443665 
	C783.487366,290.316895 780.441101,289.459625 777.482727,288.367584 
	C770.922424,285.945862 767.726379,282.120728 767.914246,277.065460 
	C768.107300,271.868988 771.978027,268.123688 778.739563,266.341431 
	C783.706482,265.032166 788.297302,265.842041 792.621826,268.427917 
	C795.004211,269.852448 795.885254,272.202789 795.738342,274.820374 
	C795.607239,277.155853 794.248840,278.802490 792.022400,279.691803 
	C790.486084,280.305481 789.089355,280.140411 787.823914,279.087799 
	C786.668884,278.127045 786.990662,277.030823 787.655945,275.973572 
	C789.610718,272.867340 787.787354,271.405396 785.193176,270.307770 
	C781.415222,268.709229 778.160034,269.818146 776.052490,273.018677 
	C774.342163,275.616150 776.078552,278.016724 778.371948,279.250977 
	C781.126038,280.733124 784.207642,281.620422 787.173889,282.692017 
	C795.315918,285.633453 798.251465,289.299988 797.190002,295.289398 
	C796.131042,301.264862 790.522156,305.224182 783.010254,305.406433 
	C778.470337,305.516571 773.987976,305.437531 770.075073,302.694458 
	C766.002136,299.839172 765.535828,294.111847 769.155212,291.686890 
	C770.798157,290.586151 772.550659,290.373383 774.330444,291.365326 
	C776.104309,292.353973 775.695068,293.775452 775.047607,295.240631 
	C774.280090,296.977264 774.691101,298.478088 776.295837,300.007019 
z"/>
<path fill="#000000" opacity="1.000000" stroke="none" 
	d="
M725.321411,268.813293 
	C727.259705,267.850922 728.849609,266.909149 730.555054,266.281128 
	C733.873169,265.059326 736.465210,266.281525 738.184753,269.195404 
	C739.866943,272.046082 739.734131,274.936157 737.578491,277.553680 
	C736.147156,279.291748 734.203369,279.707336 732.158569,278.997437 
	C730.162842,278.304565 730.824219,276.756775 731.140991,275.239014 
	C731.719666,272.466156 729.839722,271.861237 727.880066,272.556641 
	C724.819397,273.642792 722.241821,275.410461 722.315247,279.324646 
	C722.405823,284.148529 722.350281,288.975708 722.315857,293.801178 
	C722.292786,297.035309 722.009033,300.346130 726.522522,300.934509 
	C727.379883,301.046326 727.961670,301.809662 727.956299,302.733063 
	C727.949463,303.906403 727.125793,304.712982 726.109741,304.738251 
	C720.798950,304.870392 715.484009,304.908905 710.171936,304.850800 
	C709.206421,304.840271 708.243896,304.180969 708.154297,302.986542 
	C708.065613,301.804169 708.821228,301.029938 709.861084,300.890594 
	C713.817139,300.360565 713.769592,297.530182 713.739685,294.569916 
	C713.684204,289.079132 713.684814,283.587189 713.729309,278.096283 
	C713.752136,275.282715 713.676453,272.663513 709.991943,272.186310 
	C708.941223,272.050232 708.139832,271.312347 708.140991,270.169861 
	C708.142334,268.748383 709.244446,268.204193 710.407898,267.900330 
	C712.656860,267.312927 714.936768,266.843323 717.183899,266.249390 
	C719.599548,265.610931 721.794861,265.057648 722.403198,268.627686 
	C722.777222,270.822327 724.081909,269.282562 725.321411,268.813293 
z"/>
<path fill="#000000" opacity="1.000000" stroke="none" 
	d="
M817.610107,271.670166 
	C814.884094,274.971313 816.257568,278.575775 816.052979,281.954041 
	C815.802307,286.093079 815.907043,290.262146 816.028625,294.413239 
	C816.194214,300.064331 817.631287,301.245270 823.061340,300.311523 
	C824.700134,300.029694 826.585999,299.148407 827.216675,301.433533 
	C827.897461,303.900208 825.625000,304.462311 824.000732,305.079437 
	C814.681213,308.620361 807.631958,304.151154 807.035095,294.086365 
	C806.681458,288.123840 806.922729,282.125397 806.918579,276.143097 
	C806.916870,273.736298 806.999084,271.365417 803.641052,271.082916 
	C802.585327,270.994141 801.855652,270.225952 801.737366,269.087799 
	C801.588440,267.654297 802.483154,266.937103 803.679565,266.584808 
	C807.207642,265.545807 809.141846,263.064209 810.272888,259.705963 
	C810.805237,258.125122 811.574402,256.351196 813.690796,256.773773 
	C816.170654,257.268921 816.035767,259.457275 815.634949,261.190796 
	C814.547974,265.891968 816.518738,267.247955 820.882629,266.620605 
	C822.748169,266.352386 825.311890,265.564850 825.385376,268.730591 
	C825.455322,271.742432 822.885864,271.180725 820.971863,271.311157 
	C819.978455,271.378876 818.984680,271.439911 817.610107,271.670166 
z"/>
<path fill="#000000" opacity="1.000000" stroke="none" 
	d="
M848.038330,281.010193 
	C848.044495,285.337555 847.970581,289.169769 848.073792,292.997192 
	C848.163269,296.315826 847.010132,300.339050 852.247864,301.114960 
	C853.105469,301.242035 853.456177,302.206238 853.319397,303.121582 
	C853.143005,304.302246 852.233276,304.880524 851.221313,304.896423 
	C846.065979,304.977448 840.908447,304.985718 835.752747,304.926697 
	C834.718018,304.914825 833.851868,304.282471 833.675171,303.121765 
	C833.498596,301.962585 834.031860,301.061859 835.156006,300.908783 
	C839.184204,300.360168 838.946045,297.372009 838.953430,294.503052 
	C838.967102,289.174194 838.985901,283.845154 838.962280,278.516388 
	C838.949707,275.668549 839.207214,272.657837 835.182922,272.082520 
	C834.092651,271.926666 833.507751,271.013855 833.633362,269.865875 
	C833.758789,268.719360 834.603088,268.197052 835.614380,267.903229 
	C835.931763,267.811005 836.272217,267.800690 836.593506,267.718964 
	C848.058289,264.802307 848.058350,264.801788 848.045471,277.015869 
	C848.044250,278.181549 848.038757,279.347260 848.038330,281.010193 
z"/>
<path fill="#000000" opacity="1.000000" stroke="none" 
	d="
M750.152588,304.957642 
	C748.688599,304.992615 747.690308,305.069153 746.694763,305.043182 
	C745.067871,305.000763 743.069092,305.321777 742.694275,303.090240 
	C742.336548,300.960297 744.279846,300.962677 745.654114,300.520721 
	C747.898743,299.798859 747.939941,297.858154 747.961670,296.031799 
	C748.026917,290.545898 748.055298,285.058472 747.998291,279.572662 
	C747.964600,276.340637 748.672363,272.810486 743.810364,271.889862 
	C741.994019,271.545929 742.144897,269.657318 743.651672,268.432434 
	C744.020386,268.132660 744.539307,268.001801 745.005310,267.839661 
	C756.376770,263.882324 757.063171,264.370422 757.048950,276.350098 
	C757.041504,282.667938 757.033264,288.985809 757.050598,295.303589 
	C757.057617,297.873383 757.095398,300.417694 760.583069,300.850494 
	C761.926208,301.017181 762.678650,301.998993 762.352905,303.347229 
	C762.029724,304.685242 760.793091,305.003784 759.595703,305.014404 
	C756.604065,305.040924 753.611633,304.979370 750.152588,304.957642 
z"/>
<path fill="#000000" opacity="1.000000" stroke="none" 
	d="
M694.723022,341.177612 
	C691.720032,346.680573 684.996582,349.172394 679.667419,347.216736 
	C677.827087,346.541351 677.734802,345.116760 677.715515,343.614166 
	C677.658020,339.126953 677.746094,334.636200 677.602295,330.152405 
	C677.503479,327.071533 679.091370,326.182159 681.847595,325.964630 
	C691.704468,325.186829 696.242004,330.294189 694.723022,341.177612 
M689.814026,331.724182 
	C689.030762,330.779327 687.987915,330.297272 686.809753,330.098938 
	C684.792603,329.759399 682.475586,328.403809 681.428711,331.581573 
	C680.415833,334.656403 681.375061,343.938965 682.818420,344.372070 
	C683.567749,344.596924 684.464783,344.448700 685.275146,344.331329 
	C690.851196,343.523743 692.255493,340.119904 689.814026,331.724182 
z"/>
<path fill="#000000" opacity="1.000000" stroke="none" 
	d="
M593.576416,327.117004 
	C596.803589,329.189819 597.783875,331.831421 596.768127,335.061127 
	C595.806458,338.118866 593.375305,339.593170 590.352478,339.755920 
	C587.100220,339.931091 584.797852,340.604645 585.388977,344.630219 
	C585.551514,345.737213 585.271179,347.123566 583.581848,346.962097 
	C582.059875,346.816650 581.864075,345.531769 581.853516,344.365387 
	C581.808594,339.384521 581.829407,334.402985 581.841003,329.421722 
	C581.846436,327.083008 583.345276,326.267090 585.377747,326.097656 
	C588.038452,325.875946 590.693420,325.806580 593.576416,327.117004 
M592.970032,331.265686 
	C590.440125,329.549744 587.664673,327.654297 585.658691,331.539612 
	C584.933472,332.944336 584.355530,335.849182 587.419250,336.226776 
	C590.529053,336.609985 593.688477,336.465057 592.970032,331.265686 
z"/>
<path fill="#000000" opacity="1.000000" stroke="none" 
	d="
M603.905029,343.083923 
	C602.154419,337.543182 599.752869,332.606293 598.772949,326.838257 
	C603.819824,326.246826 603.049683,330.379425 604.141479,332.568512 
	C605.380615,335.053040 606.111633,337.791016 607.253540,340.943146 
	C611.130737,336.410736 609.958069,329.749207 614.606506,326.230652 
	C617.015503,328.088501 615.904419,329.716675 615.429688,331.168579 
	C614.089539,335.267670 612.655884,339.338043 611.165771,343.385376 
	C610.558899,345.033722 610.263916,347.076233 607.879150,347.253754 
	C605.162354,347.456055 604.757874,345.290192 603.905029,343.083923 
z"/>
<path fill="#000000" opacity="1.000000" stroke="none" 
	d="
M627.262207,339.012085 
	C626.781738,342.001190 628.497803,345.091095 625.422241,347.085205 
	C622.822266,345.590027 623.942688,343.200989 623.689697,341.240814 
	C623.026306,336.102051 626.909790,328.939392 616.785583,328.323608 
	C621.106628,325.036682 630.013672,325.219666 633.031921,328.034729 
	C627.268494,331.609406 627.268494,331.609406 627.262207,339.012085 
z"/>
<path fill="#000000" opacity="1.000000" stroke="none" 
	d="
M662.460571,326.032349 
	C666.799377,326.444397 671.023132,324.765900 674.645020,327.401215 
	C674.455505,328.100250 674.388245,328.674652 674.285461,328.681091 
	C668.052673,329.071869 668.002075,333.253937 668.253418,337.976471 
	C668.407288,340.867950 668.963135,343.917908 667.568115,346.681976 
	C665.543823,347.203186 665.072449,345.951843 664.984436,344.540070 
	C664.850403,342.391602 664.915527,340.231415 664.859131,338.077209 
	C664.746826,333.788544 666.313293,328.544250 659.246460,328.729614 
	C659.243835,326.183350 660.796448,326.335632 662.460571,326.032349 
z"/>
<path fill="#000000" opacity="1.000000" stroke="none" 
	d="
M846.485840,256.556519 
	C841.279053,258.205292 838.285095,257.130341 837.414307,253.475159 
	C836.519714,249.720352 838.814087,247.919876 841.935791,246.991653 
	C844.413391,246.254959 846.528503,247.181885 847.984253,249.307159 
	C849.819641,251.986664 849.000305,254.299698 846.485840,256.556519 
z"/>
<path fill="#000000" opacity="1.000000" stroke="none" 
	d="
M747.310974,249.247009 
	C747.944641,248.641541 748.289612,248.264908 748.711548,248.021927 
	C751.579468,246.370605 754.449524,246.079208 756.723999,248.860062 
	C758.480042,251.006989 758.462891,253.513092 756.578552,255.650452 
	C754.602417,257.891907 751.989136,258.439209 749.413452,256.972260 
	C746.518860,255.323715 745.154236,252.865463 747.310974,249.247009 
z"/>
<path fill="#000000" opacity="1.000000" stroke="none" 
	d="
M651.357178,327.722717 
	C651.535400,331.889679 651.919067,335.739899 651.534363,339.511780 
	C651.124573,343.529846 652.478455,345.055573 656.438477,344.735901 
	C657.794556,344.626465 659.471375,344.214111 660.736328,346.398987 
	C656.889954,348.042603 653.081726,347.601624 649.347595,346.927704 
	C647.762512,346.641602 647.842529,344.895935 647.825317,343.589935 
	C647.763733,338.937317 647.721008,334.283081 647.778564,329.630768 
	C647.806946,327.342926 648.235718,325.310638 651.357178,327.722717 
z"/>
</svg>